<svg version="1.1" id="money" xmlns="http://www.w3.org/2000/svg" xmlns:xlink="http://www.w3.org/1999/xlink" x="0px" y="0px" viewBox="0 0 200 120" enable-background="new 0 0 200 120" xml:space="preserve">
	<g>
		<g>
			<g enable-background="new">
				<g>
					<path fill="#D4ECE8" d="M46.2,53.1c1.1,0.6,1.8,1.4,2.1,2.3c0-0.6,0-1.3,0-1.9c-0.3-0.8-1-1.6-2.1-2.3c-2.9-1.7-7.7-1.7-10.7,0
					c-1.5,0.9-2.2,2-2.2,3.1c0,0.6,0,1.3,0,1.9c0-1.1,0.7-2.2,2.2-3.1C38.5,51.4,43.3,51.4,46.2,53.1z"/>
				</g>
				<g>
					<path fill="#D4ECE8" d="M48.3,55.4c0.1,0.3,0.1,0.5,0.1,0.8l0-1.9c0-0.3,0-0.5-0.1-0.8c0,0.3,0,0.6,0,1c0,0.1,0,0.2,0,0.3
					c0,0.1,0,0.2,0,0.4c0,0.1,0,0.2,0,0.2C48.3,55.3,48.3,55.4,48.3,55.4z"/>
				</g>
				<g>
					<path fill="#D4ECE8" d="M33.3,54.3l0,1.9c0,1.1,0.7,2.2,2.2,3.1c2.9,1.7,7.7,1.7,10.7,0c1.5-0.9,2.2-2,2.2-3.1l0-1.9
					c0,1.1-0.7,2.3-2.2,3.1c-3,1.7-7.7,1.7-10.7,0C34,56.5,33.3,55.4,33.3,54.3z"/>
				</g>
				<g>
					<path fill="#D4ECE8" d="M33.3,56.2C33.3,56.2,33.3,56.2,33.3,56.2c0-0.7,0-1.3,0-2c0,0,0,0,0,0C33.3,54.9,33.3,55.7,33.3,56.2z"/>
				</g>
				<g>
					<g>
						<path fill="#C28D36" d="M35.5,51.2c-3,1.7-3,4.5,0,6.2c2.9,1.7,7.7,1.7,10.7,0c3-1.7,3-4.5,0-6.2
						C43.3,49.5,38.5,49.5,35.5,51.2z"/>
					</g>
				</g>
				<g>
					<path fill="#7F5D2D" d="M31.2,54.3l0,1.9c0,1.4,0.9,2.8,2.8,3.9c3.7,2.2,9.8,2.2,13.6,0c1.9-1.1,2.8-2.5,2.8-4l0-1.9
					c0,1.4-0.9,2.9-2.8,4c-3.8,2.2-9.9,2.2-13.6,0C32.2,57.1,31.2,55.7,31.2,54.3z"/>
				</g>
				<g>
					<path
						fill="#C28D36"
						d="M47.7,50.3c3.7,2.2,3.7,5.7,0,7.9c-3.8,2.2-9.9,2.2-13.6,0c-3.7-2.2-3.7-5.7,0-7.9
					C37.8,48.2,43.9,48.2,47.7,50.3z M46.2,57.4c3-1.7,3-4.5,0-6.2c-2.9-1.7-7.7-1.7-10.7,0c-3,1.7-3,4.5,0,6.2
					C38.4,59.1,43.2,59.1,46.2,57.4"/>
				</g>
			</g>
		</g>
		<g>
			<g enable-background="new">
				<g>
					<path fill="#D4ECE8" d="M46.2,50.9c1.1,0.6,1.8,1.4,2.1,2.3c0-0.6,0-1.3,0-1.9c-0.3-0.8-1-1.6-2.1-2.3c-2.9-1.7-7.7-1.7-10.7,0
					c-1.5,0.9-2.2,2-2.2,3.1c0,0.6,0,1.3,0,1.9c0-1.1,0.7-2.2,2.2-3.1C38.4,49.2,43.2,49.2,46.2,50.9z"/>
				</g>
				<g>
					<path fill="#D4ECE8" d="M48.2,53.2c0.1,0.3,0.1,0.5,0.1,0.8l0-1.9c0-0.3,0-0.5-0.1-0.8c0,0.3,0,0.6,0,1c0,0.1,0,0.2,0,0.3
					c0,0.1,0,0.2,0,0.4c0,0.1,0,0.2,0,0.2C48.2,53.1,48.2,53.2,48.2,53.2z"/>
				</g>
				<g>
					<path fill="#D4ECE8" d="M33.2,52.1l0,1.9c0,1.1,0.7,2.2,2.2,3.1c2.9,1.7,7.7,1.7,10.7,0c1.5-0.9,2.2-2,2.2-3.1l0-1.9
					c0,1.1-0.7,2.3-2.2,3.1c-3,1.7-7.7,1.7-10.7,0C34,54.3,33.2,53.2,33.2,52.1z"/>
				</g>
				<g>
					<path fill="#D4ECE8" d="M33.2,54.1C33.2,54,33.2,54,33.2,54.1c0-0.7,0-1.3,0-2c0,0,0,0,0,0C33.2,52.7,33.2,53.5,33.2,54.1z"/>
				</g>
				<g>
					<g>
						<path fill="#C28D36" d="M35.5,49c-3,1.7-3,4.5,0,6.2c2.9,1.7,7.7,1.7,10.7,0c3-1.7,3-4.5,0-6.2C43.2,47.3,38.4,47.3,35.5,49z"/>
					</g>
				</g>
				<g>
					<path fill="#7F5D2D" d="M31.2,52.1l0,1.9c0,1.4,0.9,2.8,2.8,3.9c3.7,2.2,9.8,2.2,13.6,0c1.9-1.1,2.8-2.5,2.8-4l0-1.9
					c0,1.4-0.9,2.9-2.8,4c-3.8,2.2-9.9,2.2-13.6,0C32.1,55,31.2,53.5,31.2,52.1z"/>
				</g>
				<g>
					<path fill="#C28D36" d="M47.6,48.2c3.7,2.2,3.7,5.7,0,7.9c-3.8,2.2-9.9,2.2-13.6,0c-3.7-2.2-3.7-5.7,0-7.9
					C37.8,46,43.9,46,47.6,48.2z M46.1,55.2c3-1.7,3-4.5,0-6.2c-2.9-1.7-7.7-1.7-10.7,0c-3,1.7-3,4.5,0,6.2
					C38.4,56.9,43.2,56.9,46.1,55.2"/>
				</g>
			</g>
		</g>
		<g>
			<g enable-background="new">
				<g>
					<path fill="#D4ECE8" d="M46.2,48.7c1.1,0.6,1.8,1.4,2.1,2.3c0-0.6,0-1.3,0-1.9c-0.3-0.8-1-1.6-2.1-2.3c-2.9-1.7-7.7-1.7-10.7,0
					c-1.5,0.9-2.2,2-2.2,3.1c0,0.6,0,1.3,0,1.9c0-1.1,0.7-2.2,2.2-3.1C38.5,47,43.3,47,46.2,48.7z"/>
				</g>
				<g>
					<path fill="#D4ECE8" d="M48.3,51c0.1,0.3,0.1,0.5,0.1,0.8l0-1.9c0-0.3,0-0.5-0.1-0.8c0,0.3,0,0.6,0,1c0,0.1,0,0.2,0,0.3
					c0,0.1,0,0.2,0,0.4c0,0.1,0,0.2,0,0.2C48.3,50.9,48.3,50.9,48.3,51z"/>
				</g>
				<g>
					<path fill="#D4ECE8" d="M33.3,49.9l0,1.9c0,1.1,0.7,2.2,2.2,3.1c2.9,1.7,7.7,1.7,10.7,0c1.5-0.9,2.2-2,2.2-3.1l0-1.9
					c0,1.1-0.7,2.3-2.2,3.1c-3,1.7-7.7,1.7-10.7,0C34,52.1,33.3,51,33.3,49.9z"/>
				</g>
				<g>
					<path fill="#D4ECE8" d="M33.3,51.8C33.3,51.8,33.3,51.8,33.3,51.8c0-0.7,0-1.3,0-2c0,0,0,0,0,0C33.3,50.5,33.3,51.2,33.3,51.8z"/>
				</g>
				<g>
					<g>
						<path fill="#C28D36" d="M35.5,46.8c-3,1.7-3,4.5,0,6.2c2.9,1.7,7.7,1.7,10.7,0c3-1.7,3-4.5,0-6.2S38.5,45.1,35.5,46.8z"/>
					</g>
				</g>
				<g>
					<path fill="#7F5D2D" d="M31.2,49.9l0,1.9c0,1.4,0.9,2.8,2.8,3.9c3.7,2.2,9.8,2.2,13.6,0c1.9-1.1,2.8-2.5,2.8-4l0-1.9
					c0,1.4-0.9,2.9-2.8,4c-3.8,2.2-9.9,2.2-13.6,0C32.2,52.7,31.2,51.3,31.2,49.9z"/>
				</g>
				<g>
					<path fill="#C28D36" d="M47.7,45.9c3.7,2.2,3.7,5.7,0,7.9c-3.8,2.2-9.9,2.2-13.6,0c-3.7-2.2-3.7-5.7,0-7.9
					C37.8,43.8,43.9,43.8,47.7,45.9z M46.2,53c3-1.7,3-4.5,0-6.2s-7.7-1.7-10.7,0c-3,1.7-3,4.5,0,6.2C38.4,54.7,43.2,54.7,46.2,53"/>
				</g>
			</g>
		</g>
		<g>
			<g enable-background="new">
				<g>
					<path fill="#D4ECE8" d="M46.2,45.7c1.1,0.6,1.8,1.4,2.1,2.3c0-0.6,0-1.3,0-1.9c-0.3-0.8-1-1.6-2.1-2.3c-2.9-1.7-7.7-1.7-10.7,0
					c-1.5,0.9-2.2,2-2.2,3.1c0,0.6,0,1.3,0,1.9c0-1.1,0.7-2.2,2.2-3.1C38.5,44,43.3,44,46.2,45.7z"/>
				</g>
				<g>
					<path fill="#D4ECE8" d="M48.3,48c0.1,0.3,0.1,0.5,0.1,0.8l0-1.9c0-0.3,0-0.5-0.1-0.8c0,0.3,0,0.6,0,1c0,0.1,0,0.2,0,0.3
					c0,0.1,0,0.2,0,0.4c0,0.1,0,0.2,0,0.2C48.3,47.9,48.3,48,48.3,48z"/>
				</g>
				<g>
					<path fill="#D4ECE8" d="M33.3,46.9l0,1.9c0,1.1,0.7,2.2,2.2,3.1c2.9,1.7,7.7,1.7,10.7,0c1.5-0.9,2.2-2,2.2-3.1l0-1.9
					c0,1.1-0.7,2.3-2.2,3.1c-3,1.7-7.7,1.7-10.7,0C34,49.1,33.3,48,33.3,46.9z"/>
				</g>
				<g>
					<path fill="#D4ECE8" d="M33.3,48.9C33.3,48.8,33.3,48.8,33.3,48.9c0-0.7,0-1.3,0-2c0,0,0,0,0,0C33.3,47.5,33.3,48.3,33.3,48.9z"/>
				</g>
				<g>
					<g>
						<path fill="#C28D36" d="M35.5,43.8c-3,1.7-3,4.5,0,6.2c2.9,1.7,7.7,1.7,10.7,0c3-1.7,3-4.5,0-6.2S38.5,42.1,35.5,43.8z"/>
					</g>
				</g>
				<g>
					<path fill="#7F5D2D" d="M31.2,46.9l0,1.9c0,1.4,0.9,2.8,2.8,3.9c3.7,2.2,9.8,2.2,13.6,0c1.9-1.1,2.8-2.5,2.8-4l0-1.9
					c0,1.4-0.9,2.9-2.8,4c-3.8,2.2-9.9,2.2-13.6,0C32.2,49.8,31.2,48.3,31.2,46.9z"/>
				</g>
				<g>
					<path fill="#C28D36" d="M47.7,43c3.7,2.2,3.7,5.7,0,7.9c-3.8,2.2-9.9,2.2-13.6,0c-3.7-2.2-3.7-5.7,0-7.9
					C37.8,40.8,43.9,40.8,47.7,43z M46.2,50c3-1.7,3-4.5,0-6.2s-7.7-1.7-10.7,0c-3,1.7-3,4.5,0,6.2C38.4,51.7,43.2,51.7,46.2,50"/>
				</g>
			</g>
		</g>
		<g>
			<g enable-background="new">
				<g>
					<path fill="#D4ECE8" d="M47,43c1.1,0.6,1.8,1.4,2.1,2.3c0-0.6,0-1.3,0-1.9c-0.3-0.8-1-1.6-2.1-2.3c-2.9-1.7-7.7-1.7-10.7,0
					c-1.5,0.9-2.2,2-2.2,3.1c0,0.6,0,1.3,0,1.9c0-1.1,0.7-2.2,2.2-3.1C39.3,41.3,44.1,41.3,47,43z"/>
				</g>
				<g>
					<path fill="#D4ECE8" d="M49.1,45.3c0.1,0.3,0.1,0.5,0.1,0.8l0-1.9c0-0.3,0-0.5-0.1-0.8c0,0.3,0,0.6,0,1c0,0.1,0,0.2,0,0.3
					c0,0.1,0,0.2,0,0.4c0,0.1,0,0.2,0,0.2C49.1,45.2,49.1,45.3,49.1,45.3z"/>
				</g>
				<g>
					<path fill="#D4ECE8" d="M34.1,44.2l0,1.9c0,1.1,0.7,2.2,2.2,3.1c2.9,1.7,7.7,1.7,10.7,0c1.5-0.9,2.2-2,2.2-3.1l0-1.9
					c0,1.1-0.7,2.3-2.2,3.1c-3,1.7-7.7,1.7-10.7,0C34.8,46.4,34.1,45.3,34.1,44.2z"/>
				</g>
				<g>
					<path fill="#D4ECE8" d="M34.1,46.2C34.1,46.1,34.1,46.1,34.1,46.2c0-0.7,0-1.3,0-2c0,0,0,0,0,0C34.1,44.8,34.1,45.6,34.1,46.2z"/>
				</g>
				<g>
					<g>
						<path fill="#C28D36" d="M36.3,41.1c-3,1.7-3,4.5,0,6.2C39.2,49,44,49,47,47.3c3-1.7,3-4.5,0-6.2C44.1,39.4,39.3,39.4,36.3,41.1
						z"/>
					</g>
				</g>
				<g>
					<path fill="#7F5D2D" d="M32,44.2l0,1.9c0,1.4,0.9,2.8,2.8,3.9c3.7,2.2,9.8,2.2,13.6,0c1.9-1.1,2.8-2.5,2.8-4l0-1.9
					c0,1.4-0.9,2.9-2.8,4c-3.8,2.2-9.9,2.2-13.6,0C33,47.1,32,45.6,32,44.2z"/>
				</g>
				<g>
					<path fill="#C28D36" d="M48.5,40.3c3.7,2.2,3.7,5.7,0,7.9c-3.8,2.2-9.9,2.2-13.6,0c-3.7-2.2-3.7-5.7,0-7.9
					C38.6,38.1,44.7,38.1,48.5,40.3z M47,47.3c3-1.7,3-4.5,0-6.2c-2.9-1.7-7.7-1.7-10.7,0c-3,1.7-3,4.5,0,6.2C39.2,49,44,49,47,47.3
					"/>
				</g>
			</g>
		</g>
		<g>
			<path fill="#5F4A3B" d="M54,43.6l0,7.4l26.1,15.1l52.4-30.2l0-7.4l-26.1-15.1"/>
			<path fill="#DBD0AF" d="M106.3,13.4L54,43.6L80,58.7l52.4-30.2L106.3,13.4z"/>
			<g>
				<polygon fill="#E1E4F3" points="76.6,30.6 102.6,45.7 110.6,41.1 84.5,25.9 			"/>
			</g>
			<g>
				<polygon fill="#9BA1B8" points="102.6,45.7 102.7,53.1 110.7,48.5 110.6,41.1 			"/>
			</g>
			<polygon fill="#86674D" points="80,58.7 80,66.1 54,51 54,43.6 		"/>
		</g>
		<g>
			<path fill="#484C55" d="M84.6,59.4l0,7.4l26.1,15.1L163,51.7l0-7.4l-26.1-15.1"/>
			<path fill="#B2B4AF" d="M136.9,29.2L84.6,59.4l26.1,15.1L163,44.3L136.9,29.2z"/>
			<g>
				<polygon fill="#E1E4F3" points="107.1,46.4 133.2,61.5 141.2,56.9 115.1,41.7 			"/>
			</g>
			<g>
				<polygon fill="#9BA1B8" points="133.2,61.5 133.3,68.9 141.2,64.3 141.2,56.9 			"/>
			</g>
			<polygon fill="#747B86" points="110.6,74.6 110.6,81.9 84.6,66.8 84.6,59.4 		"/>
		</g>
		<g>
			<path fill="#446157" d="M115.1,73.6l0,7.4l26.1,15.1l52.4-30.2l0-7.4l-26.1-15.1"/>
			<path fill="#B5D4BD" d="M167.5,43.3l-52.4,30.2l26.1,15.1l52.4-30.2L167.5,43.3z"/>
			<g>
				<g>
					<polygon fill="#E1E4F3" points="137.7,60.5 163.8,75.6 171.7,71 145.7,55.9 				"/>
				</g>
			</g>
			<g>
				<g>
					<polygon fill="#9BA1B8" points="163.8,75.6 163.8,83 171.8,78.4 171.8,71 				"/>
				</g>
			</g>
			<polygon fill="#5A9A81" points="141.2,88.7 141.2,96.1 115.2,80.9 115.2,73.6 		"/>
		</g>
		<g>
			<path fill="#777392" d="M83.7,62.6L57.6,77.7l0,7.4l52.4,30.2l26.1-15.1l0-7.4"/>
			<path fill="#ADA9C0" d="M83.7,62.6L57.6,77.7L110,108l26.1-15.1L83.7,62.6z"/>
			<g>
				<polygon fill="#E1E4F3" points="113.5,79.8 87.4,94.9 79.4,90.3 105.5,75.2 			"/>
			</g>
			<g>
				<polygon fill="#9BA1B8" points="87.4,94.9 87.4,102.3 79.4,97.7 79.4,90.3 			"/>
			</g>
			<polygon fill="#565370" points="110,108 110,115.3 136,100.2 136,92.8 		"/>
		</g>
		<g>
			<g enable-background="new">
				<g>
					<path fill="#D4ECE8" d="M39,64.7c1.1,0.6,1.8,1.4,2.1,2.3c0-0.6,0-1.3,0-1.9c-0.3-0.8-1-1.6-2.1-2.3c-2.9-1.7-7.7-1.7-10.7,0
					c-1.5,0.9-2.2,2-2.2,3.1c0,0.6,0,1.3,0,1.9c0-1.1,0.7-2.2,2.2-3.1C31.3,63,36.1,63,39,64.7z"/>
				</g>
				<g>
					<path fill="#D4ECE8" d="M41.1,66.9c0.1,0.3,0.1,0.5,0.1,0.8l0-1.9c0-0.3,0-0.5-0.1-0.8c0,0.3,0,0.6,0,1c0,0.1,0,0.2,0,0.3
					c0,0.1,0,0.2,0,0.4c0,0.1,0,0.2,0,0.2C41.1,66.8,41.1,66.9,41.1,66.9z"/>
				</g>
				<g>
					<path fill="#D4ECE8" d="M26.1,65.8l0,1.9c0,1.1,0.7,2.2,2.2,3.1c2.9,1.7,7.7,1.7,10.7,0c1.5-0.9,2.2-2,2.2-3.1l0-1.9
					c0,1.1-0.7,2.3-2.2,3.1c-3,1.7-7.7,1.7-10.7,0C26.8,68.1,26.1,67,26.1,65.8z"/>
				</g>
				<g>
					<path fill="#D4ECE8" d="M26.1,67.8C26.1,67.8,26.1,67.8,26.1,67.8c0-0.7,0-1.3,0-2c0,0,0,0,0,0C26.1,66.4,26.1,67.2,26.1,67.8z"/>
				</g>
				<g>
					<g>
						<path fill="#CFCDC8" d="M28.3,62.7c-3,1.7-3,4.5,0,6.2c2.9,1.7,7.7,1.7,10.7,0c3-1.7,3-4.5,0-6.2S31.3,61,28.3,62.7z"/>
					</g>
				</g>
				<g>
					<path fill="#86847B" d="M24,65.8l0,1.9c0,1.4,0.9,2.8,2.8,3.9c3.7,2.2,9.8,2.2,13.6,0c1.9-1.1,2.8-2.5,2.8-4l0-1.9
					c0,1.4-0.9,2.9-2.8,4c-3.8,2.2-9.9,2.2-13.6,0C25,68.7,24,67.3,24,65.8z"/>
				</g>
				<g>
					<path fill="#CFCDC8" d="M40.5,61.9c3.7,2.2,3.7,5.7,0,7.9c-3.8,2.2-9.9,2.2-13.6,0c-3.7-2.2-3.7-5.7,0-7.9
					C30.6,59.7,36.7,59.7,40.5,61.9z M39,68.9c3-1.7,3-4.5,0-6.2s-7.7-1.7-10.7,0c-3,1.7-3,4.5,0,6.2C31.2,70.6,36,70.6,39,68.9"/>
				</g>
			</g>
		</g>
		<g>
			<g enable-background="new">
				<g>
					<path fill="#D4ECE8" d="M39,62.1c1.1,0.6,1.8,1.4,2.1,2.3c0-0.6,0-1.3,0-1.9c-0.3-0.8-1-1.6-2.1-2.3c-2.9-1.7-7.7-1.7-10.7,0
					c-1.5,0.9-2.2,2-2.2,3.1c0,0.6,0,1.3,0,1.9c0-1.1,0.7-2.2,2.2-3.1C31.3,60.4,36.1,60.4,39,62.1z"/>
				</g>
				<g>
					<path fill="#D4ECE8" d="M41.1,64.4c0.1,0.3,0.1,0.5,0.1,0.8l0-1.9c0-0.3,0-0.5-0.1-0.8c0,0.3,0,0.6,0,1c0,0.1,0,0.2,0,0.3
					c0,0.1,0,0.2,0,0.4c0,0.1,0,0.2,0,0.2C41.1,64.3,41.1,64.3,41.1,64.4z"/>
				</g>
				<g>
					<path fill="#D4ECE8" d="M26.1,63.3l0,1.9c0,1.1,0.7,2.2,2.2,3.1C31.2,70,36,70,39,68.3c1.5-0.9,2.2-2,2.2-3.1l0-1.9
					c0,1.1-0.7,2.3-2.2,3.1c-3,1.7-7.7,1.7-10.7,0C26.8,65.5,26.1,64.4,26.1,63.3z"/>
				</g>
				<g>
					<path fill="#D4ECE8" d="M26.1,65.2C26.1,65.2,26.1,65.2,26.1,65.2c0-0.7,0-1.3,0-2c0,0,0,0,0,0C26.1,63.9,26.1,64.6,26.1,65.2z"/>
				</g>
				<g>
					<g>
						<path fill="#CFCDC8" d="M28.3,60.2c-3,1.7-3,4.5,0,6.2c2.9,1.7,7.7,1.7,10.7,0c3-1.7,3-4.5,0-6.2S31.3,58.5,28.3,60.2z"/>
					</g>
				</g>
				<g>
					<path fill="#86847B" d="M24,63.3l0,1.9c0,1.4,0.9,2.8,2.8,3.9c3.7,2.2,9.8,2.2,13.6,0c1.9-1.1,2.8-2.5,2.8-4l0-1.9
					c0,1.4-0.9,2.9-2.8,4c-3.8,2.2-9.9,2.2-13.6,0C25,66.1,24,64.7,24,63.3z"/>
				</g>
				<g>
					<path fill="#CFCDC8" d="M40.5,59.3c3.7,2.2,3.7,5.7,0,7.9c-3.8,2.2-9.9,2.2-13.6,0c-3.7-2.2-3.7-5.7,0-7.9
					C30.6,57.1,36.7,57.1,40.5,59.3z M39,66.4c3-1.7,3-4.5,0-6.2s-7.7-1.7-10.7,0c-3,1.7-3,4.5,0,6.2C31.2,68.1,36,68.1,39,66.4"/>
				</g>
			</g>
		</g>
		<g>
			<g enable-background="new">
				<g>
					<path fill="#D4ECE8" d="M38.1,59.7c1.1,0.6,1.8,1.4,2.1,2.3c0-0.6,0-1.3,0-1.9c-0.3-0.8-1-1.6-2.1-2.3c-2.9-1.7-7.7-1.7-10.7,0
					c-1.5,0.9-2.2,2-2.2,3.1c0,0.6,0,1.3,0,1.9c0-1.1,0.7-2.2,2.2-3.1C30.4,58,35.2,58,38.1,59.7z"/>
				</g>
				<g>
					<path fill="#D4ECE8" d="M40.2,62c0.1,0.3,0.1,0.5,0.1,0.8l0-1.9c0-0.3,0-0.5-0.1-0.8c0,0.3,0,0.6,0,1c0,0.1,0,0.2,0,0.3
					c0,0.1,0,0.2,0,0.4c0,0.1,0,0.2,0,0.2C40.2,61.9,40.2,61.9,40.2,62z"/>
				</g>
				<g>
					<path fill="#D4ECE8" d="M25.2,60.9l0,1.9c0,1.1,0.7,2.2,2.2,3.1c2.9,1.7,7.7,1.7,10.7,0c1.5-0.9,2.2-2,2.2-3.1l0-1.9
					c0,1.1-0.7,2.3-2.2,3.1c-3,1.7-7.7,1.7-10.7,0C25.9,63.1,25.2,62,25.2,60.9z"/>
				</g>
				<g>
					<path fill="#D4ECE8" d="M25.2,62.8C25.2,62.8,25.2,62.8,25.2,62.8c0-0.7,0-1.3,0-2c0,0,0,0,0,0C25.2,61.5,25.2,62.2,25.2,62.8z"/>
				</g>
				<g>
					<g>
						<path fill="#CFCDC8" d="M27.4,57.8c-3,1.7-3,4.5,0,6.2c2.9,1.7,7.7,1.7,10.7,0c3-1.7,3-4.5,0-6.2C35.2,56,30.4,56,27.4,57.8z"/>
					</g>
				</g>
				<g>
					<path fill="#86847B" d="M23.2,60.9l0,1.9c0,1.4,0.9,2.8,2.8,3.9c3.7,2.2,9.8,2.2,13.6,0c1.9-1.1,2.8-2.5,2.8-4l0-1.9
					c0,1.4-0.9,2.9-2.8,4c-3.8,2.2-9.9,2.2-13.6,0C24.1,63.7,23.2,62.3,23.2,60.9z"/>
				</g>
				<g>
					<path
						fill="#CFCDC8"
						d="M39.6,56.9c3.7,2.2,3.7,5.7,0,7.9c-3.8,2.2-9.9,2.2-13.6,0c-3.7-2.2-3.7-5.7,0-7.9
					C29.8,54.7,35.8,54.7,39.6,56.9z M38.1,63.9c3-1.7,3-4.5,0-6.2c-2.9-1.7-7.7-1.7-10.7,0c-3,1.7-3,4.5,0,6.2
					C30.4,65.7,35.1,65.7,38.1,63.9"/>
				</g>
			</g>
		</g>
		<g>
			<g enable-background="new">
				<g>
					<path fill="#D4ECE8" d="M39.5,80.2c1,0.6,1.6,1.3,1.9,2c0-0.6,0-1.2,0-1.7c-0.2-0.7-0.9-1.5-1.9-2c-2.6-1.5-7-1.5-9.6,0
					c-1.3,0.8-2,1.8-2,2.8c0,0.6,0,1.2,0,1.7c0-1,0.7-2,2-2.8C32.5,78.6,36.8,78.6,39.5,80.2z"/>
				</g>
				<g>
					<path fill="#D4ECE8" d="M41.3,82.2c0.1,0.2,0.1,0.5,0.1,0.7l0-1.7c0-0.2,0-0.5-0.1-0.7c0,0.3,0,0.6,0,0.9c0,0.1,0,0.2,0,0.2
					c0,0.1,0,0.2,0,0.3C41.3,82,41.3,82,41.3,82.2C41.3,82.1,41.3,82.2,41.3,82.2z"/>
				</g>
				<g>
					<path fill="#D4ECE8" d="M27.9,81.2l0,1.7c0,1,0.7,2,2,2.8c2.6,1.5,7,1.5,9.6,0c1.3-0.8,2-1.8,2-2.8l0-1.7c0,1-0.7,2-2,2.8
					c-2.7,1.5-7,1.5-9.6,0C28.5,83.2,27.9,82.2,27.9,81.2z"/>
				</g>
				<g>
					<path fill="#D4ECE8" d="M27.9,83C27.9,83,27.9,83,27.9,83c0-0.6,0-1.2,0-1.8c0,0,0,0,0,0C27.9,81.8,27.9,82.5,27.9,83z"/>
				</g>
				<g>
					<g>
						<path fill="#CFCDC8" d="M29.9,78.4c-2.7,1.5-2.7,4,0,5.6c2.6,1.5,7,1.5,9.6,0c2.7-1.5,2.7-4,0-5.6S32.5,76.9,29.9,78.4z"/>
					</g>
				</g>
				<g>
					<path fill="#86847B" d="M26,81.2l0,1.7c0,1.3,0.8,2.5,2.5,3.5c3.4,2,8.8,2,12.2,0c1.7-1,2.6-2.3,2.6-3.6l0-1.7
					c0,1.3-0.8,2.6-2.6,3.6c-3.4,2-8.9,2-12.2,0C26.8,83.8,26,82.5,26,81.2z"/>
				</g>
				<g>
					<path fill="#CFCDC8" d="M40.8,77.7c3.4,2,3.4,5.1,0,7.1c-3.4,2-8.9,2-12.2,0c-3.4-2-3.4-5.1,0-7.1
					C31.9,75.7,37.4,75.7,40.8,77.7z M39.4,84c2.7-1.5,2.7-4,0-5.6s-7-1.5-9.6,0c-2.7,1.5-2.7,4,0,5.6C32.5,85.5,36.8,85.5,39.4,84"/>
				</g>
			</g>
		</g>
		<g>
			<g enable-background="new">
				<g>
					<path fill="#D4ECE8" d="M58.4,68.4c1.1,0.6,1.8,1.4,2.1,2.3c0-0.6,0-1.3,0-1.9c-0.3-0.8-1-1.6-2.1-2.3c-2.9-1.7-7.7-1.7-10.7,0
					c-1.5,0.9-2.2,2-2.2,3.1c0,0.6,0,1.3,0,1.9c0-1.1,0.7-2.2,2.2-3.1C50.7,66.7,55.5,66.7,58.4,68.4z"/>
				</g>
				<g>
					<path fill="#D4ECE8" d="M60.5,70.7c0.1,0.3,0.1,0.5,0.1,0.8l0-1.9c0-0.3,0-0.5-0.1-0.8c0,0.3,0,0.6,0,1c0,0.1,0,0.2,0,0.3
					c0,0.1,0,0.2,0,0.4c0,0.1,0,0.2,0,0.2C60.5,70.6,60.5,70.6,60.5,70.7z"/>
				</g>
				<g>
					<path fill="#D4ECE8" d="M45.5,69.6l0,1.9c0,1.1,0.7,2.2,2.2,3.1c2.9,1.7,7.7,1.7,10.7,0c1.5-0.9,2.2-2,2.2-3.1l0-1.9
					c0,1.1-0.7,2.3-2.2,3.1c-3,1.7-7.7,1.7-10.7,0C46.2,71.8,45.5,70.7,45.5,69.6z"/>
				</g>
				<g>
					<path fill="#D4ECE8" d="M45.5,71.5C45.5,71.5,45.5,71.5,45.5,71.5c0-0.7,0-1.3,0-2c0,0,0,0,0,0C45.5,70.2,45.5,71,45.5,71.5z"/>
				</g>
				<g>
					<g>
						<path fill="#C28D36" d="M47.7,66.5c-3,1.7-3,4.5,0,6.2c2.9,1.7,7.7,1.7,10.7,0c3-1.7,3-4.5,0-6.2S50.7,64.8,47.7,66.5z"/>
					</g>
				</g>
				<g>
					<path fill="#7F5D2D" d="M43.4,69.6l0,1.9c0,1.4,0.9,2.8,2.8,3.9c3.7,2.2,9.8,2.2,13.6,0c1.9-1.1,2.8-2.5,2.8-4l0-1.9
					c0,1.4-0.9,2.9-2.8,4c-3.8,2.2-9.9,2.2-13.6,0C44.4,72.4,43.4,71,43.4,69.6z"/>
				</g>
				<g>
					<path fill="#C28D36" d="M59.9,65.6c3.7,2.2,3.7,5.7,0,7.9c-3.8,2.2-9.9,2.2-13.6,0c-3.7-2.2-3.7-5.7,0-7.9
					C50.1,63.5,56.1,63.5,59.9,65.6z M58.4,72.7c3-1.7,3-4.5,0-6.2s-7.7-1.7-10.7,0c-3,1.7-3,4.5,0,6.2
					C50.6,74.4,55.4,74.4,58.4,72.7"/>
				</g>
			</g>
		</g>
		<g>
			<g enable-background="new">
				<g>
					<path fill="#D4ECE8" d="M58.4,66.2c1.1,0.6,1.8,1.4,2.1,2.3c0-0.6,0-1.3,0-1.9c-0.3-0.8-1-1.6-2.1-2.3c-2.9-1.7-7.7-1.7-10.7,0
					c-1.5,0.9-2.2,2-2.2,3.1c0,0.6,0,1.3,0,1.9c0-1.1,0.7-2.2,2.2-3.1C50.6,64.5,55.4,64.5,58.4,66.2z"/>
				</g>
				<g>
					<path fill="#D4ECE8" d="M60.4,68.5c0.1,0.3,0.1,0.5,0.1,0.8l0-1.9c0-0.3,0-0.5-0.1-0.8c0,0.3,0,0.6,0,1c0,0.1,0,0.2,0,0.3
					c0,0.1,0,0.2,0,0.4c0,0.1,0,0.2,0,0.2C60.4,68.4,60.4,68.5,60.4,68.5z"/>
				</g>
				<g>
					<path fill="#D4ECE8" d="M45.4,67.4l0,1.9c0,1.1,0.7,2.2,2.2,3.1c2.9,1.7,7.7,1.7,10.7,0c1.5-0.9,2.2-2,2.2-3.1l0-1.9
					c0,1.1-0.7,2.3-2.2,3.1c-3,1.7-7.7,1.7-10.7,0C46.2,69.6,45.4,68.5,45.4,67.4z"/>
				</g>
				<g>
					<path fill="#D4ECE8" d="M45.4,69.3C45.4,69.3,45.4,69.3,45.4,69.3c0-0.7,0-1.3,0-2c0,0,0,0,0,0C45.4,68,45.4,68.8,45.4,69.3z"/>
				</g>
				<g>
					<g>
						<path fill="#C28D36" d="M47.7,64.3c-3,1.7-3,4.5,0,6.2c2.9,1.7,7.7,1.7,10.7,0c3-1.7,3-4.5,0-6.2
						C55.4,62.6,50.6,62.6,47.7,64.3z"/>
					</g>
				</g>
				<g>
					<path fill="#7F5D2D" d="M43.4,67.4l0,1.9c0,1.4,0.9,2.8,2.8,3.9c3.7,2.2,9.8,2.2,13.6,0c1.9-1.1,2.8-2.5,2.8-4l0-1.9
					c0,1.4-0.9,2.9-2.8,4c-3.8,2.2-9.9,2.2-13.6,0C44.3,70.2,43.4,68.8,43.4,67.4z"/>
				</g>
				<g>
					<path
						fill="#C28D36"
						d="M59.8,63.5c3.7,2.2,3.7,5.7,0,7.9c-3.8,2.2-9.9,2.2-13.6,0c-3.7-2.2-3.7-5.7,0-7.9
					C50,61.3,56.1,61.3,59.8,63.5z M58.3,70.5c3-1.7,3-4.5,0-6.2c-2.9-1.7-7.7-1.7-10.7,0c-3,1.7-3,4.5,0,6.2
					C50.6,72.2,55.4,72.2,58.3,70.5"/>
				</g>
			</g>
		</g>
		<g>
			<g enable-background="new">
				<g>
					<path fill="#D4ECE8" d="M58.4,64c1.1,0.6,1.8,1.4,2.1,2.3c0-0.6,0-1.3,0-1.9c-0.3-0.8-1-1.6-2.1-2.3c-2.9-1.7-7.7-1.7-10.7,0
					c-1.5,0.9-2.2,2-2.2,3.1c0,0.6,0,1.3,0,1.9c0-1.1,0.7-2.2,2.2-3.1C50.7,62.3,55.5,62.3,58.4,64z"/>
				</g>
				<g>
					<path fill="#D4ECE8" d="M60.5,66.3c0.1,0.3,0.1,0.5,0.1,0.8l0-1.9c0-0.3,0-0.5-0.1-0.8c0,0.3,0,0.6,0,1c0,0.1,0,0.2,0,0.3
					c0,0.1,0,0.2,0,0.4c0,0.1,0,0.2,0,0.2C60.5,66.2,60.5,66.2,60.5,66.3z"/>
				</g>
				<g>
					<path fill="#D4ECE8" d="M45.5,65.2l0,1.9c0,1.1,0.7,2.2,2.2,3.1c2.9,1.7,7.7,1.7,10.7,0c1.5-0.9,2.2-2,2.2-3.1l0-1.9
					c0,1.1-0.7,2.3-2.2,3.1c-3,1.7-7.7,1.7-10.7,0C46.2,67.4,45.5,66.3,45.5,65.2z"/>
				</g>
				<g>
					<path fill="#D4ECE8" d="M45.5,67.1C45.5,67.1,45.5,67.1,45.5,67.1c0-0.7,0-1.3,0-2c0,0,0,0,0,0C45.5,65.8,45.5,66.5,45.5,67.1z"/>
				</g>
				<g>
					<g>
						<path fill="#C28D36" d="M47.7,62.1c-3,1.7-3,4.5,0,6.2c2.9,1.7,7.7,1.7,10.7,0c3-1.7,3-4.5,0-6.2S50.7,60.4,47.7,62.1z"/>
					</g>
				</g>
				<g>
					<path fill="#7F5D2D" d="M43.4,65.2l0,1.9c0,1.4,0.9,2.8,2.8,3.9c3.7,2.2,9.8,2.2,13.6,0c1.9-1.1,2.8-2.5,2.8-4l0-1.9
					c0,1.4-0.9,2.9-2.8,4c-3.8,2.2-9.9,2.2-13.6,0C44.4,68,43.4,66.6,43.4,65.2z"/>
				</g>
				<g>
					<path fill="#C28D36" d="M59.9,61.2c3.7,2.2,3.7,5.7,0,7.9c-3.8,2.2-9.9,2.2-13.6,0c-3.7-2.2-3.7-5.7,0-7.9
					C50.1,59,56.1,59,59.9,61.2z M58.4,68.3c3-1.7,3-4.5,0-6.2s-7.7-1.7-10.7,0c-3,1.7-3,4.5,0,6.2C50.6,70,55.4,70,58.4,68.3"/>
				</g>
			</g>
		</g>
		<g>
			<g enable-background="new">
				<g>
					<path fill="#D4ECE8" d="M58.4,61c1.1,0.6,1.8,1.4,2.1,2.3c0-0.6,0-1.3,0-1.9c-0.3-0.8-1-1.6-2.1-2.3c-2.9-1.7-7.7-1.7-10.7,0
					c-1.5,0.9-2.2,2-2.2,3.1c0,0.6,0,1.3,0,1.9c0-1.1,0.7-2.2,2.2-3.1C50.7,59.3,55.5,59.3,58.4,61z"/>
				</g>
				<g>
					<path fill="#D4ECE8" d="M60.5,63.3c0.1,0.3,0.1,0.5,0.1,0.8l0-1.9c0-0.3,0-0.5-0.1-0.8c0,0.3,0,0.6,0,1c0,0.1,0,0.2,0,0.3
					c0,0.1,0,0.2,0,0.4c0,0.1,0,0.2,0,0.2C60.5,63.2,60.5,63.3,60.5,63.3z"/>
				</g>
				<g>
					<path fill="#D4ECE8" d="M45.5,62.2l0,1.9c0,1.1,0.7,2.2,2.2,3.1c2.9,1.7,7.7,1.7,10.7,0c1.5-0.9,2.2-2,2.2-3.1l0-1.9
					c0,1.1-0.7,2.3-2.2,3.1c-3,1.7-7.7,1.7-10.7,0C46.2,64.4,45.5,63.3,45.5,62.2z"/>
				</g>
				<g>
					<path fill="#D4ECE8" d="M45.5,64.2C45.5,64.1,45.5,64.1,45.5,64.2c0-0.7,0-1.3,0-2c0,0,0,0,0,0C45.5,62.8,45.5,63.6,45.5,64.2z"/>
				</g>
				<g>
					<g>
						<path fill="#C28D36" d="M47.7,59.1c-3,1.7-3,4.5,0,6.2c2.9,1.7,7.7,1.7,10.7,0c3-1.7,3-4.5,0-6.2
						C55.5,57.4,50.7,57.4,47.7,59.1z"/>
					</g>
				</g>
				<g>
					<path fill="#7F5D2D" d="M43.4,62.2l0,1.9c0,1.4,0.9,2.8,2.8,3.9c3.7,2.2,9.8,2.2,13.6,0c1.9-1.1,2.8-2.5,2.8-4l0-1.9
					c0,1.4-0.9,2.9-2.8,4c-3.8,2.2-9.9,2.2-13.6,0C44.4,65.1,43.4,63.6,43.4,62.2z"/>
				</g>
				<g>
					<path fill="#C28D36" d="M59.9,58.3c3.7,2.2,3.7,5.7,0,7.9c-3.8,2.2-9.9,2.2-13.6,0c-3.7-2.2-3.7-5.7,0-7.9
					C50.1,56.1,56.1,56.1,59.9,58.3z M58.4,65.3c3-1.7,3-4.5,0-6.2c-2.9-1.7-7.7-1.7-10.7,0c-3,1.7-3,4.5,0,6.2
					C50.6,67,55.4,67,58.4,65.3"/>
				</g>
			</g>
		</g>
		<g>
			<g enable-background="new">
				<g>
					<path fill="#D4ECE8" d="M59.2,58.3c1.1,0.6,1.8,1.4,2.1,2.3c0-0.6,0-1.3,0-1.9c-0.3-0.8-1-1.6-2.1-2.3c-2.9-1.7-7.7-1.7-10.7,0
					c-1.5,0.9-2.2,2-2.2,3.1c0,0.6,0,1.3,0,1.9c0-1.1,0.7-2.2,2.2-3.1C51.5,56.6,56.3,56.6,59.2,58.3z"/>
				</g>
				<g>
					<path fill="#D4ECE8" d="M61.3,60.6c0.1,0.3,0.1,0.5,0.1,0.8l0-1.9c0-0.3,0-0.5-0.1-0.8c0,0.3,0,0.6,0,1c0,0.1,0,0.2,0,0.3
					c0,0.1,0,0.2,0,0.4c0,0.1,0,0.2,0,0.2C61.3,60.5,61.3,60.6,61.3,60.6z"/>
				</g>
				<g>
					<path fill="#D4ECE8" d="M46.3,59.5l0,1.9c0,1.1,0.7,2.2,2.2,3.1c2.9,1.7,7.7,1.7,10.7,0c1.5-0.9,2.2-2,2.2-3.1l0-1.9
					c0,1.1-0.7,2.3-2.2,3.1c-3,1.7-7.7,1.7-10.7,0C47,61.7,46.3,60.6,46.3,59.5z"/>
				</g>
				<g>
					<path fill="#D4ECE8" d="M46.3,61.5C46.3,61.4,46.3,61.4,46.3,61.5c0-0.7,0-1.3,0-2c0,0,0,0,0,0C46.3,60.1,46.3,60.9,46.3,61.5z"/>
				</g>
				<g>
					<g>
						<path fill="#C28D36" d="M48.5,56.4c-3,1.7-3,4.5,0,6.2c2.9,1.7,7.7,1.7,10.7,0c3-1.7,3-4.5,0-6.2S51.5,54.7,48.5,56.4z"/>
					</g>
				</g>
				<g>
					<path fill="#7F5D2D" d="M44.2,59.5l0,1.9c0,1.4,0.9,2.8,2.8,3.9c3.7,2.2,9.8,2.2,13.6,0c1.9-1.1,2.8-2.5,2.8-4l0-1.9
					c0,1.4-0.9,2.9-2.8,4c-3.8,2.2-9.9,2.2-13.6,0C45.2,62.4,44.2,60.9,44.2,59.5z"/>
				</g>
				<g>
					<path fill="#C28D36" d="M60.7,55.6c3.7,2.2,3.7,5.7,0,7.9c-3.8,2.2-9.9,2.2-13.6,0c-3.7-2.2-3.7-5.7,0-7.9
					C50.8,53.4,56.9,53.4,60.7,55.6z M59.2,62.6c3-1.7,3-4.5,0-6.2s-7.7-1.7-10.7,0c-3,1.7-3,4.5,0,6.2
					C51.4,64.3,56.2,64.3,59.2,62.6"/>
				</g>
			</g>
		</g>
		<g>
			<g enable-background="new">
				<g>
					<path fill="#D4ECE8" d="M39.5,77.9c1,0.6,1.6,1.3,1.9,2c0-0.6,0-1.2,0-1.7c-0.2-0.7-0.9-1.5-1.9-2c-2.6-1.5-7-1.5-9.6,0
					c-1.3,0.8-2,1.8-2,2.8c0,0.6,0,1.2,0,1.7c0-1,0.7-2,2-2.8C32.5,76.3,36.8,76.3,39.5,77.9z"/>
				</g>
				<g>
					<path fill="#D4ECE8" d="M41.3,79.9c0.1,0.2,0.1,0.5,0.1,0.7l0-1.7c0-0.2,0-0.5-0.1-0.7c0,0.3,0,0.6,0,0.9c0,0.1,0,0.2,0,0.2
					c0,0.1,0,0.2,0,0.3C41.3,79.7,41.3,79.7,41.3,79.9C41.3,79.8,41.3,79.9,41.3,79.9z"/>
				</g>
				<g>
					<path fill="#D4ECE8" d="M27.9,78.9l0,1.7c0,1,0.7,2,2,2.8c2.6,1.5,7,1.5,9.6,0c1.3-0.8,2-1.8,2-2.8l0-1.7c0,1-0.7,2-2,2.8
					c-2.7,1.5-7,1.5-9.6,0C28.5,80.9,27.9,79.9,27.9,78.9z"/>
				</g>
				<g>
					<path fill="#D4ECE8" d="M27.9,80.7C27.9,80.7,27.9,80.7,27.9,80.7c0-0.6,0-1.2,0-1.8c0,0,0,0,0,0C27.9,79.5,27.9,80.2,27.9,80.7
					z"/>
				</g>
				<g>
					<g>
						<path fill="#CFCDC8" d="M29.9,76.1c-2.7,1.5-2.7,4,0,5.6c2.6,1.5,7,1.5,9.6,0c2.7-1.5,2.7-4,0-5.6
						C36.8,74.6,32.5,74.6,29.9,76.1z"/>
					</g>
				</g>
				<g>
					<path fill="#86847B" d="M26,78.9l0,1.7c0,1.3,0.8,2.5,2.5,3.5c3.4,2,8.8,2,12.2,0c1.7-1,2.6-2.3,2.6-3.6l0-1.7
					c0,1.3-0.8,2.6-2.6,3.6c-3.4,2-8.9,2-12.2,0C26.8,81.5,26,80.2,26,78.9z"/>
				</g>
				<g>
					<path fill="#CFCDC8" d="M40.8,75.4c3.4,2,3.4,5.1,0,7.1c-3.4,2-8.9,2-12.2,0c-3.4-2-3.4-5.1,0-7.1
					C31.9,73.4,37.4,73.4,40.8,75.4z M39.4,81.7c2.7-1.5,2.7-4,0-5.6c-2.6-1.5-7-1.5-9.6,0c-2.7,1.5-2.7,4,0,5.6
					C32.5,83.2,36.8,83.2,39.4,81.7"/>
				</g>
			</g>
		</g>
		<g>
			<g enable-background="new">
				<g>
					<path fill="#D4ECE8" d="M39.5,75.7c1,0.6,1.6,1.3,1.9,2c0-0.6,0-1.2,0-1.7c-0.2-0.7-0.9-1.5-1.9-2c-2.6-1.5-7-1.5-9.6,0
					c-1.3,0.8-2,1.8-2,2.8c0,0.6,0,1.2,0,1.7c0-1,0.7-2,2-2.8C32.5,74.2,36.8,74.2,39.5,75.7z"/>
				</g>
				<g>
					<path fill="#D4ECE8" d="M41.3,77.8c0.1,0.2,0.1,0.5,0.1,0.7l0-1.7c0-0.2,0-0.5-0.1-0.7c0,0.3,0,0.6,0,0.9c0,0.1,0,0.2,0,0.2
					c0,0.1,0,0.2,0,0.3C41.3,77.5,41.3,77.6,41.3,77.8C41.3,77.7,41.3,77.7,41.3,77.8z"/>
				</g>
				<g>
					<path fill="#D4ECE8" d="M27.9,76.8l0,1.7c0,1,0.7,2,2,2.8c2.6,1.5,7,1.5,9.6,0c1.3-0.8,2-1.8,2-2.8l0-1.7c0,1-0.7,2-2,2.8
					c-2.7,1.5-7,1.5-9.6,0C28.5,78.8,27.9,77.8,27.9,76.8z"/>
				</g>
				<g>
					<path fill="#D4ECE8" d="M27.9,78.5C27.9,78.5,27.9,78.5,27.9,78.5c0-0.6,0-1.2,0-1.8c0,0,0,0,0,0C27.9,77.3,27.9,78,27.9,78.5z"/>
				</g>
				<g>
					<g>
						<path fill="#CFCDC8" d="M29.9,74c-2.7,1.5-2.7,4,0,5.6c2.6,1.5,7,1.5,9.6,0c2.7-1.5,2.7-4,0-5.6S32.5,72.5,29.9,74z"/>
					</g>
				</g>
				<g>
					<path fill="#86847B" d="M26,76.8l0,1.7c0,1.3,0.8,2.5,2.5,3.5c3.4,2,8.8,2,12.2,0c1.7-1,2.6-2.3,2.6-3.6l0-1.7
					c0,1.3-0.8,2.6-2.6,3.6c-3.4,2-8.9,2-12.2,0C26.8,79.4,26,78.1,26,76.8z"/>
				</g>
				<g>
					<path fill="#CFCDC8" d="M40.8,73.2c3.4,2,3.4,5.1,0,7.1c-3.4,2-8.9,2-12.2,0c-3.4-2-3.4-5.1,0-7.1
					C31.9,71.3,37.4,71.3,40.8,73.2z M39.4,79.6c2.7-1.5,2.7-4,0-5.6s-7-1.5-9.6,0c-2.7,1.5-2.7,4,0,5.6
					C32.5,81.1,36.8,81.1,39.4,79.6"/>
				</g>
			</g>
		</g>
		<g>
			<g enable-background="new">
				<g>
					<path fill="#D4ECE8" d="M39.4,73.3c1,0.6,1.6,1.3,1.9,2c0-0.6,0-1.2,0-1.7c-0.2-0.7-0.9-1.5-1.9-2c-2.6-1.5-7-1.5-9.6,0
					c-1.3,0.8-2,1.8-2,2.8c0,0.6,0,1.2,0,1.7c0-1,0.7-2,2-2.8C32.5,71.8,36.8,71.8,39.4,73.3z"/>
				</g>
				<g>
					<path fill="#D4ECE8" d="M41.3,75.4c0.1,0.2,0.1,0.5,0.1,0.7l0-1.7c0-0.2,0-0.5-0.1-0.7c0,0.3,0,0.6,0,0.9c0,0.1,0,0.2,0,0.2
					c0,0.1,0,0.2,0,0.3C41.3,75.1,41.3,75.2,41.3,75.4C41.3,75.3,41.3,75.3,41.3,75.4z"/>
				</g>
				<g>
					<path fill="#D4ECE8" d="M27.8,74.4l0,1.7c0,1,0.7,2,2,2.8c2.6,1.5,7,1.5,9.6,0c1.3-0.8,2-1.8,2-2.8l0-1.7c0,1-0.7,2-2,2.8
					c-2.7,1.5-7,1.5-9.6,0C28.5,76.4,27.8,75.4,27.8,74.4z"/>
				</g>
				<g>
					<path fill="#D4ECE8" d="M27.8,76.1C27.8,76.1,27.8,76.1,27.8,76.1c0-0.6,0-1.2,0-1.8c0,0,0,0,0,0C27.8,74.9,27.8,75.6,27.8,76.1
					z"/>
				</g>
				<g>
					<g>
						<path fill="#CFCDC8" d="M29.8,71.6c-2.7,1.5-2.7,4,0,5.6c2.6,1.5,7,1.5,9.6,0c2.7-1.5,2.7-4,0-5.6S32.5,70,29.8,71.6z"/>
					</g>
				</g>
				<g>
					<path fill="#86847B" d="M26,74.4l0,1.7c0,1.3,0.8,2.5,2.5,3.5c3.4,2,8.8,2,12.2,0c1.7-1,2.6-2.3,2.6-3.6l0-1.7
					c0,1.3-0.8,2.6-2.6,3.6c-3.4,2-8.9,2-12.2,0C26.8,76.9,26,75.7,26,74.4z"/>
				</g>
				<g>
					<path fill="#CFCDC8" d="M40.8,70.8c3.4,2,3.4,5.1,0,7.1c-3.4,2-8.9,2-12.2,0c-3.4-2-3.4-5.1,0-7.1
					C31.9,68.9,37.4,68.9,40.8,70.8z M39.4,77.1c2.7-1.5,2.7-4,0-5.6s-7-1.5-9.6,0c-2.7,1.5-2.7,4,0,5.6
					C32.4,78.7,36.7,78.7,39.4,77.1"/>
				</g>
			</g>
		</g>
		<g>
			<g enable-background="new">
				<g>
					<path fill="#FFD008" d="M59.2,92.4c1.3,0.8,2.2,1.7,2.5,2.7c0-0.8,0-1.6,0-2.3c-0.3-1-1.2-2-2.5-2.7c-3.5-2.1-9.3-2.1-12.9,0
					c-1.8,1-2.7,2.4-2.7,3.7c0,0.8,0,1.6,0,2.3c0-1.4,0.9-2.7,2.7-3.7C49.9,90.3,55.6,90.3,59.2,92.4z"/>
				</g>
				<g>
					<path fill="#FFD008" d="M61.7,95.1c0.1,0.3,0.2,0.7,0.2,1l0-2.3c0-0.3-0.1-0.7-0.2-1c0,0.4,0,0.8,0,1.2c0,0.1,0,0.2,0,0.3
					c0,0.1,0,0.3,0,0.4c0,0.1,0,0.2,0,0.3C61.7,95,61.7,95,61.7,95.1z"/>
				</g>
				<g>
					<path fill="#FFCA05" d="M43.6,93.8l0,2.3c0,1.3,0.9,2.7,2.6,3.7c3.5,2.1,9.3,2.1,12.9,0c1.8-1,2.7-2.4,2.7-3.8l0-2.3
					c0,1.4-0.9,2.7-2.7,3.8c-3.6,2.1-9.3,2.1-12.9,0C44.5,96.5,43.6,95.1,43.6,93.8z"/>
				</g>
				<g>
					<path fill="#FFD008" d="M43.6,96.1C43.6,96.1,43.6,96.1,43.6,96.1c0-0.8,0-1.6,0-2.4c0,0,0,0,0,0C43.6,94.5,43.6,95.4,43.6,96.1
					z"/>
				</g>
				<g>
					<path fill="#C28D36" d="M46.3,90c-3.6,2.1-3.6,5.4,0,7.5c3.5,2.1,9.3,2.1,12.9,0c3.6-2.1,3.6-5.4,0-7.5C55.6,88,49.9,88,46.3,90
					z"/>
				</g>
				<g>
					<path fill="#86847B" d="M41.1,93.8l0,2.3c0,1.7,1.1,3.4,3.4,4.7c4.5,2.6,11.9,2.6,16.4,0c2.3-1.3,3.4-3.1,3.4-4.8l0-2.3
					c0,1.7-1.1,3.5-3.4,4.8c-4.5,2.6-11.9,2.6-16.4,0C42.2,97.2,41.1,95.5,41.1,93.8z"/>
				</g>
				<g>
					<path
						fill="#CFCDC8"
						d="M60.9,89c4.5,2.6,4.5,6.9-0.1,9.5c-4.5,2.6-11.9,2.6-16.4,0C40,95.9,40,91.6,44.5,89
					C49.1,86.4,56.4,86.4,60.9,89z M59.1,97.5c3.6-2.1,3.6-5.4,0-7.5c-3.5-2.1-9.3-2.1-12.9,0c-3.6,2.1-3.6,5.4,0,7.5
					C49.8,99.6,55.6,99.6,59.1,97.5"/>
				</g>
			</g>
		</g>
		<g>
			<g enable-background="new">
				<g>
					<path fill="#FFD008" d="M58.3,89.4c1.3,0.8,2.2,1.7,2.5,2.7c0-0.8,0-1.6,0-2.3c-0.3-1-1.2-2-2.5-2.7c-3.5-2.1-9.3-2.1-12.9,0
					c-1.8,1-2.7,2.4-2.7,3.7c0,0.8,0,1.6,0,2.3c0-1.4,0.9-2.7,2.7-3.7C49,87.3,54.8,87.3,58.3,89.4z"/>
				</g>
				<g>
					<path fill="#FFD008" d="M60.8,92.1c0.1,0.3,0.2,0.7,0.2,1l0-2.3c0-0.3-0.1-0.7-0.2-1c0,0.4,0,0.8,0,1.2c0,0.1,0,0.2,0,0.3
					c0,0.1,0,0.3,0,0.4c0,0.1,0,0.2,0,0.3C60.8,92,60.8,92.1,60.8,92.1z"/>
				</g>
				<g>
					<path fill="#FFCA05" d="M42.8,90.8l0,2.3c0,1.3,0.9,2.7,2.6,3.7c3.5,2.1,9.3,2.1,12.9,0c1.8-1,2.7-2.4,2.7-3.8l0-2.3
					c0,1.4-0.9,2.7-2.7,3.8c-3.6,2.1-9.3,2.1-12.9,0C43.6,93.5,42.8,92.2,42.8,90.8z"/>
				</g>
				<g>
					<path fill="#FFD008" d="M42.8,93.1C42.8,93.1,42.8,93.1,42.8,93.1c0-0.8,0-1.6,0-2.4c0,0,0,0,0,0C42.8,91.5,42.8,92.4,42.8,93.1
					z"/>
				</g>
				<g>
					<path fill="#C28D36" d="M45.4,87.1c-3.6,2.1-3.6,5.4,0,7.5c3.5,2.1,9.3,2.1,12.9,0c3.6-2.1,3.6-5.4,0-7.5
					C54.8,85,49,85,45.4,87.1z"/>
				</g>
				<g>
					<path fill="#86847B" d="M40.3,90.8l0,2.3c0,1.7,1.1,3.4,3.4,4.7c4.5,2.6,11.9,2.6,16.4,0c2.3-1.3,3.4-3.1,3.4-4.8l0-2.3
					c0,1.7-1.1,3.5-3.4,4.8c-4.5,2.6-11.9,2.6-16.4,0C41.4,94.2,40.3,92.5,40.3,90.8z"/>
				</g>
				<g>
					<path
						fill="#CFCDC8"
						d="M60.1,86c4.5,2.6,4.5,6.9-0.1,9.5c-4.5,2.6-11.9,2.6-16.4,0c-4.5-2.6-4.5-6.9,0.1-9.5
					C48.2,83.4,55.6,83.4,60.1,86z M58.3,94.5c3.6-2.1,3.6-5.4,0-7.5c-3.5-2.1-9.3-2.1-12.9,0c-3.6,2.1-3.6,5.4,0,7.5
					C48.9,96.6,54.7,96.6,58.3,94.5"/>
				</g>
			</g>
		</g>
		<g>
			<g enable-background="new">
				<g>
					<path fill="#FFD008" d="M59.1,85.9c1.3,0.8,2.2,1.7,2.5,2.7c0-0.8,0-1.6,0-2.3c-0.3-1-1.2-2-2.5-2.7c-3.5-2.1-9.3-2.1-12.9,0
					c-1.8,1-2.7,2.4-2.7,3.7c0,0.8,0,1.6,0,2.3c0-1.4,0.9-2.7,2.7-3.7C49.8,83.9,55.6,83.9,59.1,85.9z"/>
				</g>
				<g>
					<path fill="#FFD008" d="M61.6,88.6c0.1,0.3,0.2,0.7,0.2,1l0-2.3c0-0.3-0.1-0.7-0.2-1c0,0.4,0,0.8,0,1.2c0,0.1,0,0.2,0,0.3
					c0,0.1,0,0.3,0,0.4c0,0.1,0,0.2,0,0.3C61.6,88.5,61.6,88.6,61.6,88.6z"/>
				</g>
				<g>
					<path fill="#FFCA05" d="M43.5,87.3l0,2.3c0,1.3,0.9,2.7,2.6,3.7c3.5,2.1,9.3,2.1,12.9,0c1.8-1,2.7-2.4,2.7-3.8l0-2.3
					c0,1.4-0.9,2.7-2.7,3.8c-3.6,2.1-9.3,2.1-12.9,0C44.4,90,43.5,88.7,43.5,87.3z"/>
				</g>
				<g>
					<path fill="#FFD008" d="M43.5,89.7C43.5,89.7,43.5,89.7,43.5,89.7c0-0.8,0-1.6,0-2.4c0,0,0,0,0,0C43.5,88,43.5,89,43.5,89.7z"/>
				</g>
				<g>
					<path fill="#C28D36" d="M46.2,83.6c-3.6,2.1-3.6,5.4,0,7.5c3.5,2.1,9.3,2.1,12.9,0c3.6-2.1,3.6-5.4,0-7.5
					C55.5,81.5,49.8,81.5,46.2,83.6z"/>
				</g>
				<g>
					<path fill="#86847B" d="M41,87.3l0,2.3c0,1.7,1.1,3.4,3.4,4.7c4.5,2.6,11.9,2.6,16.4,0c2.3-1.3,3.4-3.1,3.4-4.8l0-2.3
					c0,1.7-1.1,3.5-3.4,4.8c-4.5,2.6-11.9,2.6-16.4,0C42.2,90.8,41,89.1,41,87.3z"/>
				</g>
				<g>
					<path fill="#CFCDC8" d="M60.9,82.6c4.5,2.6,4.5,6.9-0.1,9.5c-4.5,2.6-11.9,2.6-16.4,0c-4.5-2.6-4.5-6.9,0.1-9.5
					C49,79.9,56.3,79.9,60.9,82.6z M59.1,91c3.6-2.1,3.6-5.4,0-7.5c-3.5-2.1-9.3-2.1-12.9,0c-3.6,2.1-3.6,5.4,0,7.5
					S55.5,93.1,59.1,91"/>
				</g>
			</g>
		</g>
		<g>
			<path fill="#5F4A3B" d="M53.9,34.9l0,7.4L80,57.4l52.4-30.2l0-7.4L106.3,4.7"/>
			<path fill="#DBD0AF" d="M106.3,4.7L53.9,34.9L80,50l52.4-30.2L106.3,4.7z"/>
			<g>
				<polygon fill="#E1E4F3" points="76.5,21.8 102.6,37 110.6,32.4 84.5,17.2 			"/>
			</g>
			<g>
				<polygon fill="#9BA1B8" points="102.6,37 102.6,44.4 110.6,39.8 110.6,32.4 			"/>
			</g>
			<polygon fill="#86674D" points="80,50 80,57.4 54,42.3 54,34.9 		"/>
		</g>
		<g>
			<path fill="#484C55" d="M84.9,50.9l0,7.4L111,73.4l52.4-30.2l0-7.4l-26.1-15.1"/>
			<path fill="#B2B4AF" d="M137.3,20.7L84.9,50.9L111,66l52.4-30.2L137.3,20.7z"/>
			<g>
				<polygon fill="#E1E4F3" points="107.5,37.8 133.6,53 141.5,48.4 115.5,33.2 			"/>
			</g>
			<g>
				<polygon fill="#9BA1B8" points="133.6,53 133.6,60.4 141.6,55.8 141.6,48.4 			"/>
			</g>
			<polygon fill="#747B86" points="111,66 111,73.4 85,58.3 85,50.9 		"/>
		</g>
		<g>
			<path fill="#446157" d="M113.3,66.2l0,7.4l26.1,15.1l52.4-30.2l0-7.4L165.6,36"/>
			<path fill="#B5D4BD" d="M165.6,36l-52.4,30.2l26.1,15.1l52.4-30.2L165.6,36z"/>
			<g>
				<g>
					<polygon fill="#E1E4F3" points="135.9,53.2 161.9,68.3 169.9,63.7 143.8,48.6 				"/>
				</g>
			</g>
			<g>
				<g>
					<polygon fill="#9BA1B8" points="161.9,68.3 162,75.7 170,71.1 169.9,63.7 				"/>
				</g>
			</g>
			<polygon fill="#5A9A81" points="139.3,81.4 139.3,88.8 113.3,73.6 113.3,66.2 		"/>
		</g>
		<g>
			<path fill="#484C55" d="M85.3,42.5l0,7.4L111.4,65l52.4-30.2l0-7.4l-26.1-15.1"/>
			<path fill="#B2B4AF" d="M137.7,12.3L85.3,42.5l26.1,15.1l52.4-30.2L137.7,12.3z"/>
			<g>
				<polygon fill="#E1E4F3" points="107.9,29.4 134,44.6 141.9,40 115.9,24.8 			"/>
			</g>
			<g>
				<polygon fill="#9BA1B8" points="134,44.6 134,52 142,47.4 142,40 			"/>
			</g>
			<polygon fill="#747B86" points="111.4,57.6 111.4,65 85.3,49.9 85.3,42.5 		"/>
		</g>
		<g>
			<path fill="#777392" d="M86.7,56L60.7,71.1l0,7.4l52.4,30.2l26.1-15.1l0-7.4"/>
			<path fill="#ADA9C0" d="M86.7,56L60.7,71.1l52.4,30.2l26.1-15.1L86.7,56z"/>
			<g>
				<polygon fill="#E1E4F3" points="116.5,73.2 90.5,88.3 82.5,83.7 108.5,68.6 			"/>
			</g>
			<g>
				<polygon fill="#9BA1B8" points="90.4,88.3 90.4,95.7 82.4,91.1 82.5,83.7 			"/>
			</g>
			<polygon fill="#565370" points="113,101.4 113,108.8 139.1,93.6 139.1,86.2 		"/>
		</g>
		<g>
			<g enable-background="new">
				<g>
					<path fill="#D4ECE8" d="M38.1,57.5c1.1,0.6,1.8,1.4,2.1,2.3c0-0.6,0-1.3,0-1.9c-0.3-0.8-1-1.6-2.1-2.3c-2.9-1.7-7.7-1.7-10.7,0
					c-1.5,0.9-2.2,2-2.2,3.1c0,0.6,0,1.3,0,1.9c0-1.1,0.7-2.2,2.2-3.1C30.4,55.8,35.2,55.8,38.1,57.5z"/>
				</g>
				<g>
					<path fill="#D4ECE8" d="M40.2,59.8c0.1,0.3,0.1,0.5,0.1,0.8l0-1.9c0-0.3,0-0.5-0.1-0.8c0,0.3,0,0.6,0,1c0,0.1,0,0.2,0,0.3
					c0,0.1,0,0.2,0,0.4c0,0.1,0,0.2,0,0.2C40.2,59.7,40.2,59.7,40.2,59.8z"/>
				</g>
				<g>
					<path fill="#D4ECE8" d="M25.2,58.7l0,1.9c0,1.1,0.7,2.2,2.2,3.1c2.9,1.7,7.7,1.7,10.7,0c1.5-0.9,2.2-2,2.2-3.1l0-1.9
					c0,1.1-0.7,2.3-2.2,3.1c-3,1.7-7.7,1.7-10.7,0C25.9,60.9,25.2,59.8,25.2,58.7z"/>
				</g>
				<g>
					<path fill="#D4ECE8" d="M25.2,60.6C25.2,60.6,25.2,60.6,25.2,60.6c0-0.7,0-1.3,0-2c0,0,0,0,0,0C25.2,59.3,25.2,60,25.2,60.6z"/>
				</g>
				<g>
					<g>
						<path fill="#CFCDC8" d="M27.4,55.6c-3,1.7-3,4.5,0,6.2c2.9,1.7,7.7,1.7,10.7,0c3-1.7,3-4.5,0-6.2
						C35.2,53.9,30.4,53.9,27.4,55.6z"/>
					</g>
				</g>
				<g>
					<path fill="#86847B" d="M23.2,58.7l0,1.9c0,1.4,0.9,2.8,2.8,3.9c3.7,2.2,9.8,2.2,13.6,0c1.9-1.1,2.8-2.5,2.8-4l0-1.9
					c0,1.4-0.9,2.9-2.8,4c-3.8,2.2-9.9,2.2-13.6,0C24.1,61.5,23.2,60.1,23.2,58.7z"/>
				</g>
				<g>
					<path
						fill="#CFCDC8"
						d="M39.6,54.7c3.7,2.2,3.7,5.7,0,7.9c-3.8,2.2-9.9,2.2-13.6,0c-3.7-2.2-3.7-5.7,0-7.9
					C29.8,52.5,35.8,52.5,39.6,54.7z M38.1,61.8c3-1.7,3-4.5,0-6.2c-2.9-1.7-7.7-1.7-10.7,0c-3,1.7-3,4.5,0,6.2
					C30.4,63.5,35.1,63.5,38.1,61.8"/>
				</g>
			</g>
		</g>
		<g>
			<g enable-background="new">
				<g>
					<path fill="#D4ECE8" d="M59.1,55.8c1.1,0.6,1.8,1.4,2.1,2.3c0-0.6,0-1.3,0-1.9c-0.3-0.8-1-1.6-2.1-2.3c-2.9-1.7-7.7-1.7-10.7,0
					c-1.5,0.9-2.2,2-2.2,3.1c0,0.6,0,1.3,0,1.9c0-1.1,0.7-2.2,2.2-3.1C51.4,54.1,56.1,54.1,59.1,55.8z"/>
				</g>
				<g>
					<path fill="#D4ECE8" d="M61.1,58c0.1,0.3,0.1,0.5,0.1,0.8l0-1.9c0-0.3,0-0.5-0.1-0.8c0,0.3,0,0.6,0,1c0,0.1,0,0.2,0,0.3
					c0,0.1,0,0.2,0,0.4c0,0.1,0,0.2,0,0.2C61.1,57.9,61.1,58,61.1,58z"/>
				</g>
				<g>
					<path fill="#D4ECE8" d="M46.2,56.9l0,1.9c0,1.1,0.7,2.2,2.2,3.1c2.9,1.7,7.7,1.7,10.7,0c1.5-0.9,2.2-2,2.2-3.1l0-1.9
					c0,1.1-0.7,2.3-2.2,3.1c-3,1.7-7.7,1.7-10.7,0C46.9,59.2,46.2,58.1,46.2,56.9z"/>
				</g>
				<g>
					<path fill="#D4ECE8" d="M46.2,58.9C46.2,58.9,46.2,58.9,46.2,58.9c0-0.7,0-1.3,0-2c0,0,0,0,0,0C46.2,57.5,46.2,58.3,46.2,58.9z"/>
				</g>
				<g>
					<g>
						<path fill="#C28D36" d="M48.4,53.8c-3,1.7-3,4.5,0,6.2c2.9,1.7,7.7,1.7,10.7,0c3-1.7,3-4.5,0-6.2
						C56.1,52.1,51.4,52.1,48.4,53.8z"/>
					</g>
				</g>
				<g>
					<path fill="#7F5D2D" d="M44.1,57l0,1.9c0,1.4,0.9,2.8,2.8,3.9c3.7,2.2,9.8,2.2,13.6,0c1.9-1.1,2.8-2.5,2.8-4l0-1.9
					c0,1.4-0.9,2.9-2.8,4c-3.8,2.2-9.9,2.2-13.6,0C45,59.8,44.1,58.4,44.1,57z"/>
				</g>
				<g>
					<path fill="#C28D36" d="M60.5,53c3.7,2.2,3.7,5.7,0,7.9c-3.8,2.2-9.9,2.2-13.6,0c-3.7-2.2-3.7-5.7,0-7.9
					C50.7,50.8,56.8,50.8,60.5,53z M59,60c3-1.7,3-4.5,0-6.2c-2.9-1.7-7.7-1.7-10.7,0c-3,1.7-3,4.5,0,6.2C51.3,61.7,56.1,61.7,59,60
					"/>
				</g>
			</g>
		</g>
		<g>
			<g enable-background="new">
				<g>
					<path fill="#D4ECE8" d="M38.6,55.3c1.1,0.6,1.8,1.4,2.1,2.3c0-0.6,0-1.3,0-1.9c-0.3-0.8-1-1.6-2.1-2.3c-2.9-1.7-7.7-1.7-10.7,0
					c-1.5,0.9-2.2,2-2.2,3.1c0,0.6,0,1.3,0,1.9c0-1.1,0.7-2.2,2.2-3.1C30.9,53.6,35.7,53.6,38.6,55.3z"/>
				</g>
				<g>
					<path fill="#D4ECE8" d="M40.7,57.6c0.1,0.3,0.1,0.5,0.1,0.8l0-1.9c0-0.3,0-0.5-0.1-0.8c0,0.3,0,0.6,0,1c0,0.1,0,0.2,0,0.3
					c0,0.1,0,0.2,0,0.4c0,0.1,0,0.2,0,0.2C40.7,57.5,40.7,57.5,40.7,57.6z"/>
				</g>
				<g>
					<path fill="#D4ECE8" d="M25.7,56.5l0,1.9c0,1.1,0.7,2.2,2.2,3.1c2.9,1.7,7.7,1.7,10.7,0c1.5-0.9,2.2-2,2.2-3.1l0-1.9
					c0,1.1-0.7,2.3-2.2,3.1c-3,1.7-7.7,1.7-10.7,0C26.4,58.7,25.7,57.6,25.7,56.5z"/>
				</g>
				<g>
					<path fill="#D4ECE8" d="M25.7,58.4C25.7,58.4,25.7,58.4,25.7,58.4c0-0.7,0-1.3,0-2c0,0,0,0,0,0C25.7,57.1,25.7,57.9,25.7,58.4z"/>
				</g>
				<g>
					<g>
						<path fill="#CFCDC8" d="M27.9,53.4c-3,1.7-3,4.5,0,6.2c2.9,1.7,7.7,1.7,10.7,0c3-1.7,3-4.5,0-6.2S30.9,51.7,27.9,53.4z"/>
					</g>
				</g>
				<g>
					<path fill="#86847B" d="M23.6,56.5l0,1.9c0,1.4,0.9,2.8,2.8,3.9c3.7,2.2,9.8,2.2,13.6,0c1.9-1.1,2.8-2.5,2.8-4l0-1.9
					c0,1.4-0.9,2.9-2.8,4c-3.8,2.2-9.9,2.2-13.6,0C24.5,59.3,23.6,57.9,23.6,56.5z"/>
				</g>
				<g>
					<path fill="#CFCDC8" d="M40.1,52.5c3.7,2.2,3.7,5.7,0,7.9c-3.8,2.2-9.9,2.2-13.6,0c-3.7-2.2-3.7-5.7,0-7.9
					C30.2,50.4,36.3,50.4,40.1,52.5z M38.6,59.6c3-1.7,3-4.5,0-6.2s-7.7-1.7-10.7,0c-3,1.7-3,4.5,0,6.2
					C30.8,61.3,35.6,61.3,38.6,59.6"/>
				</g>
			</g>
		</g>
		<g>
			<g enable-background="new">
				<g>
					<path fill="#D4ECE8" d="M38.1,52.7c1.1,0.6,1.8,1.4,2.1,2.3c0-0.6,0-1.3,0-1.9c-0.3-0.8-1-1.6-2.1-2.3c-2.9-1.7-7.7-1.7-10.7,0
					c-1.5,0.9-2.2,2-2.2,3.1c0,0.6,0,1.3,0,1.9c0-1.1,0.7-2.2,2.2-3.1C30.4,51,35.2,51,38.1,52.7z"/>
				</g>
				<g>
					<path fill="#D4ECE8" d="M40.2,55c0.1,0.3,0.1,0.5,0.1,0.8l0-1.9c0-0.3,0-0.5-0.1-0.8c0,0.3,0,0.6,0,1c0,0.1,0,0.2,0,0.3
					c0,0.1,0,0.2,0,0.4c0,0.1,0,0.2,0,0.2C40.2,54.9,40.2,55,40.2,55z"/>
				</g>
				<g>
					<path fill="#D4ECE8" d="M25.2,53.9l0,1.9c0,1.1,0.7,2.2,2.2,3.1c2.9,1.7,7.7,1.7,10.7,0c1.5-0.9,2.2-2,2.2-3.1l0-1.9
					c0,1.1-0.7,2.3-2.2,3.1c-3,1.7-7.7,1.7-10.7,0C26,56.1,25.2,55,25.2,53.9z"/>
				</g>
				<g>
					<path fill="#D4ECE8" d="M25.2,55.9C25.2,55.8,25.2,55.8,25.2,55.9c0-0.7,0-1.3,0-2c0,0,0,0,0,0C25.2,54.5,25.2,55.3,25.2,55.9z"/>
				</g>
				<g>
					<g>
						<path fill="#CFCDC8" d="M27.4,50.8c-3,1.7-3,4.5,0,6.2c2.9,1.7,7.7,1.7,10.7,0c3-1.7,3-4.5,0-6.2
						C35.2,49.1,30.4,49.1,27.4,50.8z"/>
					</g>
				</g>
				<g>
					<path fill="#86847B" d="M23.2,53.9l0,1.9c0,1.4,0.9,2.8,2.8,3.9c3.7,2.2,9.8,2.2,13.6,0c1.9-1.1,2.8-2.5,2.8-4l0-1.9
					c0,1.4-0.9,2.9-2.8,4c-3.8,2.2-9.9,2.2-13.6,0C24.1,56.8,23.2,55.3,23.2,53.9z"/>
				</g>
				<g>
					<path fill="#CFCDC8" d="M39.6,50c3.7,2.2,3.7,5.7,0,7.9c-3.8,2.2-9.9,2.2-13.6,0c-3.7-2.2-3.7-5.7,0-7.9
					C29.8,47.8,35.8,47.8,39.6,50z M38.1,57c3-1.7,3-4.5,0-6.2c-2.9-1.7-7.7-1.7-10.7,0c-3,1.7-3,4.5,0,6.2
					C30.4,58.7,35.1,58.7,38.1,57"/>
				</g>
			</g>
		</g>
		<g>
			<g enable-background="new">
				<g>
					<path fill="#D4ECE8" d="M38.8,72c1,0.6,1.6,1.3,1.9,2c0-0.6,0-1.2,0-1.7c-0.2-0.7-0.9-1.5-1.9-2c-2.6-1.5-7-1.5-9.6,0
					c-1.3,0.8-2,1.8-2,2.8c0,0.6,0,1.2,0,1.7c0-1,0.7-2,2-2.8C31.8,70.5,36.1,70.5,38.8,72z"/>
				</g>
				<g>
					<path fill="#D4ECE8" d="M40.6,74.1c0.1,0.2,0.1,0.5,0.1,0.7l0-1.7c0-0.2,0-0.5-0.1-0.7c0,0.3,0,0.6,0,0.9c0,0.1,0,0.2,0,0.2
					c0,0.1,0,0.2,0,0.3C40.6,73.8,40.6,73.9,40.6,74.1C40.6,74,40.6,74,40.6,74.1z"/>
				</g>
				<g>
					<path fill="#D4ECE8" d="M27.2,73.1l0,1.7c0,1,0.7,2,2,2.8c2.6,1.5,7,1.5,9.6,0c1.3-0.8,2-1.8,2-2.8l0-1.7c0,1-0.7,2-2,2.8
					c-2.7,1.5-7,1.5-9.6,0C27.8,75.1,27.2,74.1,27.2,73.1z"/>
				</g>
				<g>
					<path fill="#D4ECE8" d="M27.2,74.8C27.2,74.8,27.2,74.8,27.2,74.8c0-0.6,0-1.2,0-1.8c0,0,0,0,0,0C27.2,73.6,27.2,74.3,27.2,74.8
					z"/>
				</g>
				<g>
					<g>
						<path fill="#CFCDC8" d="M29.2,70.3c-2.7,1.5-2.7,4,0,5.6c2.6,1.5,7,1.5,9.6,0c2.7-1.5,2.7-4,0-5.6S31.8,68.8,29.2,70.3z"/>
					</g>
				</g>
				<g>
					<path fill="#86847B" d="M25.3,73.1l0,1.7c0,1.3,0.8,2.5,2.5,3.5c3.4,2,8.8,2,12.2,0c1.7-1,2.6-2.3,2.6-3.6l0-1.7
					c0,1.3-0.8,2.6-2.6,3.6c-3.4,2-8.9,2-12.2,0C26.1,75.7,25.3,74.4,25.3,73.1z"/>
				</g>
				<g>
					<path fill="#CFCDC8" d="M40.1,69.5c3.4,2,3.4,5.1,0,7.1c-3.4,2-8.9,2-12.2,0c-3.4-2-3.4-5.1,0-7.1
					C31.2,67.6,36.7,67.6,40.1,69.5z M38.8,75.9c2.7-1.5,2.7-4,0-5.6s-7-1.5-9.6,0c-2.7,1.5-2.7,4,0,5.6
					C31.8,77.4,36.1,77.4,38.8,75.9"/>
				</g>
			</g>
		</g>
		<g>
			<g enable-background="new">
				<g>
					<path fill="#D4ECE8" d="M39.4,70.1c1,0.6,1.6,1.3,1.9,2c0-0.6,0-1.2,0-1.7c-0.2-0.7-0.9-1.5-1.9-2c-2.6-1.5-7-1.5-9.6,0
					c-1.3,0.8-2,1.8-2,2.8c0,0.6,0,1.2,0,1.7c0-1,0.7-2,2-2.8C32.4,68.5,36.7,68.5,39.4,70.1z"/>
				</g>
				<g>
					<path fill="#D4ECE8" d="M41.2,72.1c0.1,0.2,0.1,0.5,0.1,0.7l0-1.7c0-0.2,0-0.5-0.1-0.7c0,0.3,0,0.6,0,0.9c0,0.1,0,0.2,0,0.2
					c0,0.1,0,0.2,0,0.3C41.2,71.9,41.2,71.9,41.2,72.1C41.2,72,41.2,72.1,41.2,72.1z"/>
				</g>
				<g>
					<path fill="#D4ECE8" d="M27.7,71.1l0,1.7c0,1,0.7,2,2,2.8c2.6,1.5,7,1.5,9.6,0c1.3-0.8,2-1.8,2-2.8l0-1.7c0,1-0.7,2-2,2.8
					c-2.7,1.5-7,1.5-9.6,0C28.4,73.1,27.8,72.1,27.7,71.1z"/>
				</g>
				<g>
					<path fill="#D4ECE8" d="M27.8,72.9C27.8,72.9,27.8,72.9,27.8,72.9c0-0.6,0-1.2,0-1.8c0,0,0,0,0,0C27.8,71.7,27.8,72.4,27.8,72.9
					z"/>
				</g>
				<g>
					<g>
						<path fill="#CFCDC8" d="M29.8,68.3c-2.7,1.5-2.7,4,0,5.6c2.6,1.5,7,1.5,9.6,0c2.7-1.5,2.7-4,0-5.6S32.4,66.8,29.8,68.3z"/>
					</g>
				</g>
				<g>
					<path fill="#86847B" d="M25.9,71.1l0,1.7c0,1.3,0.8,2.5,2.5,3.5c3.4,2,8.8,2,12.2,0c1.7-1,2.6-2.3,2.6-3.6l0-1.7
					c0,1.3-0.8,2.6-2.6,3.6c-3.4,2-8.9,2-12.2,0C26.7,73.7,25.9,72.4,25.9,71.1z"/>
				</g>
				<g>
					<path fill="#CFCDC8" d="M40.7,67.6c3.4,2,3.4,5.1,0,7.1c-3.4,2-8.9,2-12.2,0c-3.4-2-3.4-5.1,0-7.1
					C31.8,65.6,37.3,65.6,40.7,67.6z M39.3,73.9c2.7-1.5,2.7-4,0-5.6s-7-1.5-9.6,0c-2.7,1.5-2.7,4,0,5.6
					C32.4,75.4,36.7,75.4,39.3,73.9"/>
				</g>
			</g>
		</g>
		<g>
			<g enable-background="new">
				<g>
					<path fill="#FFD008" d="M58,83.3c1.3,0.8,2.2,1.7,2.5,2.7c0-0.8,0-1.6,0-2.3c-0.3-1-1.2-2-2.5-2.7c-3.5-2.1-9.3-2.1-12.9,0
					c-1.8,1-2.7,2.4-2.7,3.7c0,0.8,0,1.6,0,2.3c0-1.4,0.9-2.7,2.7-3.7C48.7,81.3,54.5,81.3,58,83.3z"/>
				</g>
				<g>
					<path fill="#FFD008" d="M60.5,86.1c0.1,0.3,0.2,0.7,0.2,1l0-2.3c0-0.3-0.1-0.7-0.2-1c0,0.4,0,0.8,0,1.2c0,0.1,0,0.2,0,0.3
					c0,0.1,0,0.3,0,0.4c0,0.1,0,0.2,0,0.3C60.5,86,60.5,86,60.5,86.1z"/>
				</g>
				<g>
					<path fill="#FFCA05" d="M42.4,84.7l0,2.3c0,1.3,0.9,2.7,2.6,3.7c3.5,2.1,9.3,2.1,12.9,0c1.8-1,2.7-2.4,2.7-3.8l0-2.3
					c0,1.4-0.9,2.7-2.7,3.8c-3.6,2.1-9.3,2.1-12.9,0C43.3,87.4,42.4,86.1,42.4,84.7z"/>
				</g>
				<g>
					<path fill="#FFD008" d="M42.4,87.1C42.4,87.1,42.4,87.1,42.4,87.1c0-0.8,0-1.6,0-2.4c0,0,0,0,0,0C42.4,85.4,42.4,86.4,42.4,87.1
					z"/>
				</g>
				<g>
					<path fill="#CFCDC8" d="M45.1,81c-3.6,2.1-3.6,5.4,0,7.5c3.5,2.1,9.3,2.1,12.9,0c3.6-2.1,3.6-5.4,0-7.5
					C54.5,78.9,48.7,78.9,45.1,81z"/>
				</g>
				<g>
					<path fill="#86847B" d="M39.9,84.8l0,2.3c0,1.7,1.1,3.4,3.4,4.7c4.5,2.6,11.9,2.6,16.4,0c2.3-1.3,3.4-3.1,3.4-4.8l0-2.3
					c0,1.7-1.1,3.5-3.4,4.8c-4.5,2.6-11.9,2.6-16.4,0C41.1,88.2,39.9,86.5,39.9,84.8z"/>
				</g>
				<g>
					<path
						fill="#CFCDC8"
						d="M59.8,80c4.5,2.6,4.5,6.9-0.1,9.5c-4.5,2.6-11.9,2.6-16.4,0c-4.5-2.6-4.5-6.9,0.1-9.5
					C47.9,77.3,55.3,77.3,59.8,80z M58,88.5c3.6-2.1,3.6-5.4,0-7.5c-3.5-2.1-9.3-2.1-12.9,0c-3.6,2.1-3.6,5.4,0,7.5
					C48.6,90.5,54.4,90.5,58,88.5"/>
				</g>
			</g>
		</g>
		<g>
			<g enable-background="new">
				<g>
					<path fill="#D4ECE8" d="M19.9,74.3c1,0.6,1.6,1.3,1.9,2c0-0.6,0-1.2,0-1.7c-0.2-0.7-0.9-1.5-1.9-2c-2.6-1.5-7-1.5-9.6,0
					c-1.3,0.8-2,1.8-2,2.8c0,0.6,0,1.2,0,1.7c0-1,0.7-2,2-2.8C13,72.7,17.3,72.7,19.9,74.3z"/>
				</g>
				<g>
					<path fill="#D4ECE8" d="M21.8,76.3c0.1,0.2,0.1,0.5,0.1,0.7l0-1.7c0-0.2,0-0.5-0.1-0.7c0,0.3,0,0.6,0,0.9c0,0.1,0,0.2,0,0.2
					c0,0.1,0,0.2,0,0.3C21.8,76.1,21.8,76.1,21.8,76.3C21.8,76.2,21.8,76.3,21.8,76.3z"/>
				</g>
				<g>
					<path fill="#D4ECE8" d="M8.3,75.3l0,1.7c0,1,0.7,2,2,2.8c2.6,1.5,7,1.5,9.6,0c1.3-0.8,2-1.8,2-2.8l0-1.7c0,1-0.7,2-2,2.8
					c-2.7,1.5-7,1.5-9.6,0C8.9,77.3,8.3,76.3,8.3,75.3z"/>
				</g>
				<g>
					<path fill="#D4ECE8" d="M8.3,77.1C8.3,77.1,8.3,77.1,8.3,77.1c0-0.6,0-1.2,0-1.8c0,0,0,0,0,0C8.3,75.9,8.3,76.6,8.3,77.1z"/>
				</g>
				<g>
					<g>
						<path fill="#CFCDC8" d="M10.3,72.5c-2.7,1.5-2.7,4,0,5.6c2.6,1.5,7,1.5,9.6,0c2.7-1.5,2.7-4,0-5.6S13,71,10.3,72.5z"/>
					</g>
				</g>
				<g>
					<path fill="#86847B" d="M6.4,75.3l0,1.7c0,1.3,0.8,2.5,2.5,3.5c3.4,2,8.8,2,12.2,0c1.7-1,2.6-2.3,2.6-3.6l0-1.7
					c0,1.3-0.8,2.6-2.6,3.6c-3.4,2-8.9,2-12.2,0C7.3,77.9,6.4,76.6,6.4,75.3z"/>
				</g>
				<g>
					<path fill="#CFCDC8" d="M21.2,71.8c3.4,2,3.4,5.1,0,7.1c-3.4,2-8.9,2-12.2,0c-3.4-2-3.4-5.1,0-7.1
					C12.4,69.8,17.9,69.8,21.2,71.8z M19.9,78.1c2.7-1.5,2.7-4,0-5.6s-7-1.5-9.6,0c-2.7,1.5-2.7,4,0,5.6
					C12.9,79.6,17.2,79.6,19.9,78.1"/>
				</g>
			</g>
		</g>
		<g>
			<g enable-background="new">
				<g>
					<path fill="#D4ECE8" d="M19.9,71.8c1,0.6,1.6,1.3,1.9,2c0-0.6,0-1.2,0-1.7c-0.2-0.7-0.9-1.5-1.9-2c-2.6-1.5-7-1.5-9.6,0
					c-1.3,0.8-2,1.8-2,2.8c0,0.6,0,1.2,0,1.7c0-1,0.7-2,2-2.8C13,70.3,17.3,70.3,19.9,71.8z"/>
				</g>
				<g>
					<path fill="#D4ECE8" d="M21.8,73.8c0.1,0.2,0.1,0.5,0.1,0.7l0-1.7c0-0.2,0-0.5-0.1-0.7c0,0.3,0,0.6,0,0.9c0,0.1,0,0.2,0,0.2
					c0,0.1,0,0.2,0,0.3C21.8,73.6,21.8,73.7,21.8,73.8C21.8,73.8,21.8,73.8,21.8,73.8z"/>
				</g>
				<g>
					<path fill="#D4ECE8" d="M8.3,72.9l0,1.7c0,1,0.7,2,2,2.8c2.6,1.5,7,1.5,9.6,0c1.3-0.8,2-1.8,2-2.8l0-1.7c0,1-0.7,2-2,2.8
					c-2.7,1.5-7,1.5-9.6,0C8.9,74.9,8.3,73.9,8.3,72.9z"/>
				</g>
				<g>
					<path fill="#D4ECE8" d="M8.3,74.6C8.3,74.6,8.3,74.6,8.3,74.6c0-0.6,0-1.2,0-1.8c0,0,0,0,0,0C8.3,73.4,8.3,74.1,8.3,74.6z"/>
				</g>
				<g>
					<g>
						<path fill="#CFCDC8" d="M10.3,70c-2.7,1.5-2.7,4,0,5.6c2.6,1.5,7,1.5,9.6,0c2.7-1.5,2.7-4,0-5.6S13,68.5,10.3,70z"/>
					</g>
				</g>
				<g>
					<path fill="#86847B" d="M6.4,72.9l0,1.7c0,1.3,0.8,2.5,2.5,3.5c3.4,2,8.8,2,12.2,0c1.7-1,2.6-2.3,2.6-3.6l0-1.7
					c0,1.3-0.8,2.6-2.6,3.6c-3.4,2-8.9,2-12.2,0C7.3,75.4,6.4,74.1,6.4,72.9z"/>
				</g>
				<g>
					<path fill="#CFCDC8" d="M21.2,69.3c3.4,2,3.4,5.1,0,7.1c-3.4,2-8.9,2-12.2,0c-3.4-2-3.4-5.1,0-7.1
					C12.4,67.3,17.9,67.3,21.2,69.3z M19.9,75.6c2.7-1.5,2.7-4,0-5.6s-7-1.5-9.6,0c-2.7,1.5-2.7,4,0,5.6
					C12.9,77.2,17.2,77.2,19.9,75.6"/>
				</g>
			</g>
		</g>
		<g>
			<g enable-background="new">
				<g>
					<path fill="#D4ECE8" d="M20.4,69.8c1,0.6,1.6,1.3,1.9,2c0-0.6,0-1.2,0-1.7c-0.2-0.7-0.9-1.5-1.9-2c-2.6-1.5-7-1.5-9.6,0
					c-1.3,0.8-2,1.8-2,2.8c0,0.6,0,1.2,0,1.7c0-1,0.7-2,2-2.8C13.4,68.3,17.7,68.3,20.4,69.8z"/>
				</g>
				<g>
					<path fill="#D4ECE8" d="M22.2,71.9c0.1,0.2,0.1,0.5,0.1,0.7l0-1.7c0-0.2,0-0.5-0.1-0.7c0,0.3,0,0.6,0,0.9c0,0.1,0,0.2,0,0.2
					c0,0.1,0,0.2,0,0.3C22.2,71.6,22.2,71.7,22.2,71.9C22.2,71.8,22.2,71.8,22.2,71.9z"/>
				</g>
				<g>
					<path fill="#D4ECE8" d="M8.7,70.9l0,1.7c0,1,0.7,2,2,2.8c2.6,1.5,7,1.5,9.6,0c1.3-0.8,2-1.8,2-2.8l0-1.7c0,1-0.7,2-2,2.8
					c-2.7,1.5-7,1.5-9.6,0C9.4,72.9,8.7,71.9,8.7,70.9z"/>
				</g>
				<g>
					<path fill="#D4ECE8" d="M8.7,72.6C8.7,72.6,8.7,72.6,8.7,72.6c0-0.6,0-1.2,0-1.8c0,0,0,0,0,0C8.7,71.4,8.7,72.1,8.7,72.6z"/>
				</g>
				<g>
					<g>
						<path fill="#CFCDC8" d="M10.7,68.1c-2.7,1.5-2.7,4,0,5.6c2.6,1.5,7,1.5,9.6,0c2.7-1.5,2.7-4,0-5.6S13.4,66.5,10.7,68.1z"/>
					</g>
				</g>
				<g>
					<path fill="#86847B" d="M6.9,70.9l0,1.7c0,1.3,0.8,2.5,2.5,3.5c3.4,2,8.8,2,12.2,0c1.7-1,2.6-2.3,2.6-3.6l0-1.7
					c0,1.3-0.8,2.6-2.6,3.6c-3.4,2-8.9,2-12.2,0C7.7,73.4,6.9,72.2,6.9,70.9z"/>
				</g>
				<g>
					<path fill="#CFCDC8" d="M21.7,67.3c3.4,2,3.4,5.1,0,7.1c-3.4,2-8.9,2-12.2,0c-3.4-2-3.4-5.1,0-7.1
					C12.8,65.4,18.3,65.4,21.7,67.3z M20.3,73.6c2.7-1.5,2.7-4,0-5.6s-7-1.5-9.6,0c-2.7,1.5-2.7,4,0,5.6
					C13.4,75.2,17.7,75.2,20.3,73.6"/>
				</g>
			</g>
		</g>
	</g>
</svg>
